<svg width="24" height="24" viewBox="0 0 24 24" fill="none" xmlns="http://www.w3.org/2000/svg">
<path d="M15.6186 11.1284C17.1543 10.0084 18.1544 8.19581 18.1544 6.15384C18.1544 2.76061 15.3937 0 12.0005 0C8.60727 0 5.84666 2.76061 5.84666 6.15384C5.84666 8.19581 6.84665 10.0084 8.38237 11.1284C4.56487 12.5892 1.84668 16.2905 1.84668 20.6154C1.84668 22.4817 3.36501 24 5.23129 24H18.7697C20.636 24 22.1543 22.4817 22.1543 20.6154C22.1543 16.2905 19.4361 12.5892 15.6186 11.1284ZM7.69284 6.15384C7.69284 3.77859 9.62526 1.84617 12.0005 1.84617C14.3758 1.84617 16.3082 3.77859 16.3082 6.15384C16.3082 8.52909 14.3758 10.4616 12.0005 10.4616C9.62526 10.4616 7.69284 8.52909 7.69284 6.15384ZM18.7697 22.1538H5.23129C4.38299 22.1538 3.69285 21.4637 3.69285 20.6153C3.69285 16.0344 7.4196 12.3076 12.0006 12.3076C16.5815 12.3076 20.3083 16.0344 20.3083 20.6153C20.3082 21.4637 19.6181 22.1538 18.7697 22.1538Z" fill="#273142" fill-opacity="0.9"/>
</svg>
