<svg width="94" height="14" viewBox="0 0 94 14" fill="none" xmlns="http://www.w3.org/2000/svg">
<g clip-path="url(#clip0_1_1366)">
<path d="M7.00033 9.68833L4.47666 11.0834L4.95866 8.12863L2.91699 6.0361L5.73871 5.605L7.00033 2.91669L8.26194 5.605L11.0837 6.0361L9.04199 8.12863L9.52399 11.0834L7.00033 9.68833Z" fill="#FFDD45" stroke="#FFDD45" stroke-width="3" stroke-linecap="square"/>
</g>
<g clip-path="url(#clip1_1_1366)">
<path d="M27.0003 9.68833L24.4767 11.0834L24.9587 8.12863L22.917 6.0361L25.7387 5.605L27.0003 2.91669L28.2619 5.605L31.0837 6.0361L29.042 8.12863L29.524 11.0834L27.0003 9.68833Z" fill="#FFDD45" stroke="#FFDD45" stroke-width="3" stroke-linecap="square"/>
</g>
<g clip-path="url(#clip2_1_1366)">
<path d="M47.0003 9.68833L44.4767 11.0834L44.9587 8.12863L42.917 6.0361L45.7387 5.605L47.0003 2.91669L48.2619 5.605L51.0837 6.0361L49.042 8.12863L49.524 11.0834L47.0003 9.68833Z" fill="#FFDD45" stroke="#FFDD45" stroke-width="3" stroke-linecap="square"/>
</g>
<g clip-path="url(#clip3_1_1366)">
<path d="M67.0003 9.68833L64.4767 11.0834L64.9587 8.12863L62.917 6.0361L65.7387 5.605L67.0003 2.91669L68.2619 5.605L71.0837 6.0361L69.042 8.12863L69.524 11.0834L67.0003 9.68833Z" fill="#FFDD45" stroke="#FFDD45" stroke-width="3" stroke-linecap="square"/>
</g>
<g clip-path="url(#clip4_1_1366)">
<path d="M87.0003 9.68833L84.4767 11.0834L84.9587 8.12863L82.917 6.0361L85.7387 5.605L87.0003 2.91669L88.2619 5.605L91.0837 6.0361L89.042 8.12863L89.524 11.0834L87.0003 9.68833Z" fill="#FFDD45" stroke="#FFDD45" stroke-width="3" stroke-linecap="square"/>
</g>
<defs>
<clipPath id="clip0_1_1366">
<rect width="14" height="14" fill="white"/>
</clipPath>
<clipPath id="clip1_1_1366">
<rect width="14" height="14" fill="white" transform="translate(20)"/>
</clipPath>
<clipPath id="clip2_1_1366">
<rect width="14" height="14" fill="white" transform="translate(40)"/>
</clipPath>
<clipPath id="clip3_1_1366">
<rect width="14" height="14" fill="white" transform="translate(60)"/>
</clipPath>
<clipPath id="clip4_1_1366">
<rect width="14" height="14" fill="white" transform="translate(80)"/>
</clipPath>
</defs>
</svg>
