<svg width="24" height="24" viewBox="0 0 24 24" fill="none" xmlns="http://www.w3.org/2000/svg">
<g clip-path="url(#clip0_1_1252)">
<path d="M22.0718 3.96971C19.4616 1.36022 15.2154 1.36022 12.6059 3.96971L11.9998 4.57546L11.394 3.96971C8.78456 1.35987 4.53796 1.35987 1.92847 3.96971C-0.628033 6.52621 -0.644634 10.5785 1.88997 13.3961C4.20171 15.9649 11.0196 21.5149 11.3089 21.7498C11.5053 21.9094 11.7416 21.9871 11.9765 21.9871C11.9843 21.9871 11.992 21.9871 11.9994 21.9868C12.2424 21.9981 12.4872 21.9147 12.69 21.7498C12.9792 21.5149 19.7979 15.9649 22.1103 13.3957C24.6446 10.5785 24.628 6.52621 22.0718 3.96971ZM20.535 11.9783C18.7326 13.9806 13.7782 18.1103 11.9994 19.5758C10.2207 18.1107 5.26733 13.9813 3.46527 11.9787C1.69712 10.0134 1.68052 7.21461 3.42677 5.46836C4.31862 4.57687 5.48985 4.13077 6.66108 4.13077C7.83231 4.13077 9.00355 4.57652 9.89539 5.46836L11.2277 6.80066C11.3863 6.95925 11.5862 7.0539 11.796 7.08711C12.1365 7.16022 12.5059 7.06521 12.7708 6.80101L14.1038 5.46836C15.8879 3.68502 18.7898 3.68538 20.5728 5.46836C22.3191 7.21461 22.3025 10.0134 20.535 11.9783Z" fill="#273142" fill-opacity="0.9"/>
</g>
<defs>
<clipPath id="clip0_1_1252">
<rect width="24" height="24" fill="white"/>
</clipPath>
</defs>
</svg>
